<svg width="153" height="46" viewBox="0 0 153 46" fill="none" xmlns="http://www.w3.org/2000/svg">
<path d="M10.0041 3.4676C10.0041 3.4676 10.0041 3.47109 10.0041 3.47308C10.0038 3.4749 10.0038 3.47674 10.0041 3.47856C9.92858 3.97358 10.9209 4.34496 11.1625 4.43918C11.8205 4.63858 14.5828 5.08724 14.5828 5.08724L16.9634 9.96809L17.2573 10L16.0552 5.38534C16.0552 5.38534 17.4428 5.54287 18.1585 5.60169C18.8741 5.66052 20.5493 5.72283 20.5493 5.72283L21.4558 7.17298L21.5486 7.10668L21.2757 5.73579L21.245 5.58176L21.3566 5.40977L22 4.41276L21.9428 4.31854L20.6663 5.20389C20.6663 5.20389 19.098 4.65553 18.4136 4.45314C17.7292 4.25075 16.3842 3.89332 16.3842 3.89332L19.4356 0.0762726L19.1514 0L14.8994 3.63559C14.8994 3.63559 12.1662 3.05384 11.4764 2.99851C11.2127 3 10.1438 2.98554 10.0041 3.4676Z" fill="#EF8248"/>
<path d="M15 15.3559H19.018V28H21.9815V15.3559H26V14H15V15.3559Z" fill="#EF8248"/>
<path d="M36.8612 15.9768C37.0035 15.3664 37.0368 14.7339 36.9592 14.1109C36.7448 14.0837 36.4898 14.0609 36.2008 14.044C35.8231 14.0212 35.5185 14.0087 35.2816 14.0065C35.0448 14.0043 34.7433 14 34.3781 14H28V28H30.8242V15.3548H34.3792C35.5122 15.3548 36.3395 15.5621 36.8612 15.9768Z" fill="#EF8248"/>
<path d="M51.5616 14H48.7846C48.5459 14.2473 48.1872 14.6675 47.7098 15.2648C47.2323 15.8622 46.659 16.6303 45.9899 17.5719C45.3208 18.5134 44.694 19.4624 44.1111 20.42C43.5365 21.3629 43.0378 22.35 42.6198 23.372C42.2063 24.3808 41.9996 25.2294 42 25.9178C42 26.6265 42.2155 27.1511 42.6466 27.4915C43.0777 27.8319 43.6688 28.0014 44.42 28C45.0307 27.9915 45.6365 27.8895 46.2164 27.6976C46.8982 27.4764 47.5547 27.1835 48.1749 26.824C48.8422 26.4429 49.3888 26.1133 49.8145 25.8354C50.2402 25.5574 50.7398 25.2119 51.3132 24.7991L50.6292 23.485C50.0304 23.9846 49.3143 24.4306 48.4811 24.8232C47.6479 25.2157 46.9317 25.4107 46.3325 25.4082C45.521 25.4082 45.1174 25.0292 45.1174 24.2692C45.1174 23.8053 45.2561 23.1808 45.5333 22.3957C45.8021 21.6377 46.1123 20.8951 46.4626 20.1711C46.8027 19.4728 47.1952 18.7216 47.6402 17.9176C48.0852 17.1137 48.394 16.5679 48.5667 16.2802C48.7423 15.9896 48.8783 15.7632 48.9789 15.5962C51.0486 21.5509 52.6875 25.6498 53.8954 27.8929H57C56.0672 26.0045 55.0655 23.7073 53.995 21.0013C52.9244 18.2954 52.1133 15.9616 51.5616 14Z" fill="#EF8248"/>
<path d="M68.7522 15.6697C68.6648 15.3897 68.5946 15.1755 68.5393 15.0261C68.4841 14.8767 68.3967 14.6754 68.2795 14.424C68.1623 14.1726 68.0987 14.0318 68.0838 14.0027H64.9457L65.0457 14.1338C65.1405 14.2566 65.2219 14.3888 65.2884 14.5282C65.3797 14.7105 65.4737 14.9225 65.5649 15.1674C65.6739 15.4698 65.7551 15.7811 65.8076 16.0975C65.8749 16.4857 65.9084 16.8788 65.9077 17.2725C65.9112 18.0545 65.8248 18.8344 65.65 19.5976C65.4671 20.3681 65.1921 21.115 64.8307 21.823C64.4685 22.5481 64.0608 23.2508 63.6099 23.9269C63.1676 24.5873 62.6074 25.3548 61.9292 26.2294L58.0933 14H55L59.4357 28H62.3659C62.3659 27.9131 62.4876 27.7594 62.7297 27.535C62.9719 27.3105 63.2892 27.0327 63.6807 26.6945C64.0721 26.3562 64.5045 25.9656 64.9766 25.5297C65.4823 25.0529 65.9542 24.5432 66.3892 24.0041C66.861 23.4209 67.2932 22.8081 67.6829 22.1699C68.0936 21.4884 68.4139 20.7587 68.6361 19.9985C68.8773 19.2011 68.9998 18.3741 68.9999 17.5428C69.0017 17.2116 68.981 16.8807 68.938 16.5523C68.8999 16.2538 68.8378 15.9587 68.7522 15.6697Z" fill="#EF8248"/>
<path d="M70 28H81V26.6441H73.1498V21.0003H78.9477V19.9852H73.1498V15.3559H81V14H70V28Z" fill="#EF8248"/>
<path d="M84.9316 26.6441V14H82V28H91V26.6441H84.9316Z" fill="#EF8248"/>
<path d="M35.2634 8.41155C29.937 5.89804 22 6.00058 22 6.00058C48.431 10.5795 33.0689 22.1568 32.8071 22.3545C32.8058 22.355 32.8043 22.355 32.8029 22.3545L33.6259 23.349L33.8084 23.569L33.9329 23.7212L37.4723 28H41L36.478 22.4549C42.5024 14.6777 39.8514 10.5736 35.2634 8.41155Z" fill="#EF8248"/>
<path d="M101.506 18.0529C101.418 18.188 101.327 18.2872 101.232 18.3508C101.144 18.4064 101.021 18.4341 100.862 18.4341C100.704 18.4341 100.541 18.3944 100.374 18.315C100.207 18.2356 100.021 18.1522 99.814 18.0649C99.6075 17.9696 99.3693 17.8822 99.0993 17.8028C98.8372 17.7234 98.5314 17.6837 98.182 17.6837C97.6499 17.6837 97.2369 17.7948 96.9431 18.0172C96.6492 18.2316 96.5023 18.5175 96.5023 18.8749C96.5023 19.1211 96.5857 19.3276 96.7525 19.4944C96.9193 19.6612 97.1377 19.8081 97.4077 19.9351C97.6856 20.0543 97.9993 20.1694 98.3488 20.2806C98.6982 20.3839 99.0556 20.499 99.4209 20.6261C99.7942 20.7531 100.156 20.9001 100.505 21.0668C100.854 21.2336 101.164 21.4441 101.434 21.6982C101.712 21.9444 101.934 22.2462 102.101 22.6036C102.268 22.953 102.351 23.3779 102.351 23.8782C102.351 24.4739 102.24 25.0258 102.018 25.5341C101.803 26.0344 101.486 26.4672 101.065 26.8326C100.644 27.1979 100.12 27.4838 99.4924 27.6903C98.865 27.8968 98.1423 28 97.3243 28C96.9034 28 96.4864 27.9603 96.0735 27.8809C95.6605 27.8094 95.2674 27.7062 94.8941 27.5711C94.5208 27.4282 94.1714 27.2654 93.8458 27.0827C93.5202 26.9001 93.2383 26.7015 93 26.4871L93.7624 25.2601C93.8498 25.1171 93.957 25.006 94.0841 24.9265C94.2191 24.8471 94.3898 24.8074 94.5963 24.8074C94.7948 24.8074 94.9775 24.859 95.1443 24.9623C95.3111 25.0576 95.4977 25.1648 95.7042 25.2839C95.9107 25.3951 96.1529 25.5023 96.4308 25.6056C96.7167 25.7009 97.0702 25.7485 97.4911 25.7485C97.8087 25.7485 98.0827 25.7128 98.313 25.6413C98.5433 25.5698 98.73 25.4745 98.8729 25.3554C99.0159 25.2283 99.1191 25.0893 99.1827 24.9385C99.2541 24.7796 99.2899 24.6168 99.2899 24.45C99.2899 24.18 99.2025 23.9616 99.0278 23.7948C98.861 23.6201 98.6386 23.4692 98.3607 23.3422C98.0907 23.2151 97.777 23.0999 97.4196 22.9967C97.0622 22.8934 96.6969 22.7783 96.3236 22.6512C95.9583 22.5242 95.597 22.3733 95.2396 22.1985C94.8901 22.0238 94.5764 21.8054 94.2985 21.5433C94.0285 21.2733 93.8061 20.9437 93.6314 20.5546C93.4646 20.1655 93.3812 19.6929 93.3812 19.137C93.3812 18.6287 93.4805 18.1482 93.679 17.6956C93.8776 17.2349 94.1754 16.8299 94.5725 16.4805C94.9696 16.131 95.4619 15.8531 96.0496 15.6466C96.6453 15.4401 97.3322 15.3369 98.1105 15.3369C98.9841 15.3369 99.7783 15.4798 100.493 15.7657C101.208 16.0516 101.795 16.4249 102.256 16.8855L101.506 18.0529Z" fill="#EF8248"/>
<path d="M117.204 27.8094H113.928V17.8862H108.484V24.2952C108.484 24.6367 108.563 24.9067 108.722 25.1052C108.889 25.3038 109.123 25.403 109.425 25.403C109.584 25.403 109.719 25.3872 109.83 25.3554C109.941 25.3157 110.036 25.276 110.116 25.2363C110.195 25.1886 110.267 25.1489 110.33 25.1171C110.402 25.0774 110.473 25.0576 110.545 25.0576C110.64 25.0576 110.719 25.0814 110.783 25.1291C110.846 25.1688 110.91 25.2402 110.973 25.3435L111.962 26.9159C111.509 27.2733 110.997 27.5433 110.425 27.726C109.854 27.9087 109.262 28 108.65 28C108.094 28 107.602 27.9206 107.173 27.7617C106.744 27.595 106.383 27.3607 106.089 27.0589C105.795 26.7571 105.573 26.3918 105.422 25.9629C105.271 25.5341 105.196 25.0496 105.196 24.5096V17.8862H104.04C103.866 17.8862 103.715 17.8306 103.588 17.7194C103.468 17.6082 103.409 17.4414 103.409 17.2191V15.9325L105.374 15.5751L106.042 12.3944C106.129 12.0371 106.371 11.8584 106.768 11.8584H108.484V15.5989H117.204V27.8094ZM117.716 12.0132C117.716 12.2833 117.66 12.5414 117.549 12.7876C117.438 13.0258 117.287 13.2363 117.096 13.4189C116.914 13.5936 116.695 13.7366 116.441 13.8478C116.195 13.951 115.929 14.0026 115.643 14.0026C115.373 14.0026 115.115 13.951 114.869 13.8478C114.631 13.7366 114.42 13.5936 114.237 13.4189C114.055 13.2363 113.908 13.0258 113.797 12.7876C113.693 12.5414 113.642 12.2833 113.642 12.0132C113.642 11.7353 113.693 11.4772 113.797 11.2389C113.908 10.9927 114.055 10.7783 114.237 10.5956C114.42 10.413 114.631 10.27 114.869 10.1668C115.115 10.0556 115.373 10 115.643 10C115.929 10 116.195 10.0556 116.441 10.1668C116.695 10.27 116.914 10.413 117.096 10.5956C117.287 10.7783 117.438 10.9927 117.549 11.2389C117.66 11.4772 117.716 11.7353 117.716 12.0132Z" fill="#EF8248"/>
<path d="M128.932 18.2674C128.837 18.3944 128.742 18.4937 128.646 18.5652C128.551 18.6287 128.416 18.6605 128.241 18.6605C128.082 18.6605 127.928 18.6168 127.777 18.5295C127.634 18.4341 127.467 18.3349 127.276 18.2316C127.086 18.1205 126.859 18.0212 126.597 17.9338C126.335 17.8385 126.01 17.7909 125.621 17.7909C125.128 17.7909 124.699 17.8822 124.334 18.0649C123.977 18.2396 123.679 18.4937 123.441 18.8273C123.202 19.1608 123.024 19.5659 122.904 20.0424C122.793 20.5189 122.738 21.0549 122.738 21.6506C122.738 22.9054 122.988 23.8663 123.488 24.5334C123.996 25.2005 124.687 25.5341 125.561 25.5341C125.863 25.5341 126.121 25.5103 126.335 25.4626C126.558 25.407 126.748 25.3395 126.907 25.2601C127.074 25.1807 127.217 25.0933 127.336 24.998C127.455 24.9027 127.566 24.8154 127.67 24.7359C127.781 24.6565 127.888 24.593 127.991 24.5453C128.102 24.4897 128.225 24.4619 128.36 24.4619C128.615 24.4619 128.813 24.5572 128.956 24.7478L129.897 25.9391C129.548 26.3441 129.174 26.6817 128.777 26.9517C128.38 27.2138 127.967 27.4242 127.538 27.5831C127.118 27.734 126.689 27.8372 126.252 27.8928C125.815 27.9563 125.382 27.9881 124.953 27.9881C124.199 27.9881 123.484 27.8491 122.809 27.5711C122.134 27.2852 121.542 26.8723 121.034 26.3322C120.526 25.7922 120.121 25.1291 119.819 24.3428C119.525 23.5566 119.378 22.6592 119.378 21.6506C119.378 20.7531 119.509 19.9193 119.771 19.1489C120.034 18.3786 120.419 17.7114 120.927 17.1476C121.435 16.5837 122.063 16.143 122.809 15.8253C123.564 15.4997 124.433 15.3369 125.418 15.3369C126.355 15.3369 127.177 15.4878 127.884 15.7895C128.591 16.0913 129.226 16.5281 129.79 17.0999L128.932 18.2674Z" fill="#EF8248"/>
<path d="M134.85 10.0477V20.1257H135.398C135.604 20.1257 135.767 20.0979 135.886 20.0424C136.005 19.9788 136.124 19.8676 136.244 19.7088L138.96 16.0874C139.095 15.9047 139.246 15.7657 139.412 15.6704C139.587 15.5751 139.806 15.5275 140.068 15.5275H143.07L139.543 20.0066C139.265 20.3799 138.944 20.6737 138.578 20.8882C138.761 21.0152 138.92 21.1621 139.055 21.3289C139.19 21.4957 139.321 21.6823 139.448 21.8888L143.248 27.8094H140.294C140.04 27.8094 139.821 27.7697 139.639 27.6903C139.456 27.6029 139.305 27.452 139.186 27.2376L136.422 22.7227C136.311 22.5321 136.196 22.409 136.077 22.3534C135.958 22.2978 135.779 22.27 135.541 22.27H134.85V27.8094H131.562V10.0477H134.85Z" fill="#EF8248"/>
</svg>
