<svg width="24" height="24" viewBox="0 0 24 24" fill="none" xmlns="http://www.w3.org/2000/svg">
<path d="M22.0005 11.9995C22.0005 11.712 21.879 11.4355 21.667 11.241L20.962 10.5615L21.4285 9.735C21.5695 9.4845 21.6 9.1835 21.511 8.91C21.422 8.636 21.221 8.4105 20.959 8.291L20.079 7.8625L20.267 6.9325C20.3235 6.651 20.2595 6.356 20.0905 6.123C19.9215 5.89 19.661 5.7375 19.374 5.7045L18.4045 5.5685L18.296 4.625C18.2635 4.3395 18.111 4.0785 17.8785 3.9095C17.646 3.7405 17.3505 3.6765 17.068 3.7325L16.1035 3.903L15.709 3.04C15.5895 2.779 15.364 2.578 15.091 2.489C14.817 2.399 14.517 2.43 14.2655 2.571L13.4015 3.031L12.759 2.3325C12.5645 2.121 12.288 2 12.001 2L11.9995 2C11.7115 2.0005 11.434 2.123 11.24 2.335L10.5605 3.04L9.73402 2.574C9.48352 2.4325 9.18202 2.4035 8.90952 2.4915C8.63602 2.58 8.41002 2.7815 8.29052 3.043L7.86202 3.923L6.93202 3.7355C6.65002 3.6775 6.35502 3.7425 6.12302 3.9115C5.89002 4.0805 5.73752 4.341 5.70402 4.628L5.56852 5.598L4.62452 5.706C4.33902 5.739 4.07802 5.891 3.90852 6.124C3.73952 6.3565 3.67502 6.652 3.73152 6.9345L3.90252 7.8985L3.04002 8.293C2.77852 8.4125 2.57702 8.6375 2.48802 8.911C2.39952 9.1845 2.42952 9.4855 2.57102 9.7365L3.03102 10.6005L2.33302 11.2425C2.12052 11.437 1.99902 11.7135 1.99902 12.0015C1.99902 12.2895 2.12052 12.566 2.33252 12.761L3.03752 13.4405L2.57102 14.267C2.43002 14.5175 2.39952 14.8185 2.48852 15.092C2.57752 15.3655 2.77852 15.5915 3.04052 15.7105L3.92052 16.139L3.73202 17.07C3.67552 17.3515 3.73952 17.6465 3.90852 17.8795C4.07752 18.1125 4.33802 18.265 4.62602 18.2985L5.59552 18.432L5.70452 19.374C5.73652 19.6595 5.88852 19.9205 6.12102 20.0895C6.35502 20.259 6.65002 20.324 6.93252 20.2665L7.89702 20.0955L8.29152 20.959C8.41102 21.22 8.63652 21.421 8.91002 21.51C9.18352 21.599 9.48402 21.5685 9.73452 21.4275L10.599 20.9675L11.241 21.6665C11.4355 21.8785 11.7125 22 12 22L12.0005 22C12.288 22 12.5645 21.878 12.759 21.6665L13.4385 20.9615L14.265 21.4275C14.516 21.5695 14.817 21.599 15.0895 21.51C15.363 21.4215 15.589 21.22 15.7085 20.958L16.137 20.078L17.0675 20.266C17.347 20.3225 17.6435 20.2585 17.8765 20.0895C18.109 19.9205 18.262 19.66 18.295 19.3735L18.4305 18.4035L19.3735 18.295C19.659 18.262 19.92 18.11 20.0895 17.877C20.259 17.644 20.323 17.349 20.2665 17.0665L20.0955 16.102L20.958 15.7075C21.2195 15.588 21.421 15.363 21.51 15.0895C21.5995 14.816 21.569 14.5155 21.428 14.264L20.968 13.3995L21.6665 12.7575C21.879 12.564 22.0005 12.287 22.0005 11.9995Z" fill="#EB662B"/>
<path opacity="0.05" d="M11.3193 16.5495C10.9238 16.5495 10.5698 16.339 10.3723 15.9865C8.59176 12.7995 5.75526 11.3145 5.72676 11.2995L5.55176 11.2095L5.75726 10.354L5.95426 10.354C8.65726 10.354 10.1448 11.3135 11.2133 12.3195C12.8843 9.65001 16.4188 8.01351 17.9233 7.62951L18.1268 7.57751L18.5023 8.40951L18.3283 8.52751C15.1428 10.693 13.3653 13.7875 12.3058 15.927C12.1148 16.311 11.7373 16.5495 11.3193 16.5495Z" fill="white"/>
<path opacity="0.07" d="M11.3193 16.2994C11.0153 16.2994 10.7433 16.1369 10.5908 15.8644C8.76482 12.5949 5.87032 11.0919 5.84082 11.0769L5.95482 10.6044C8.92482 10.6044 10.3418 11.7974 11.2668 12.7194C12.8138 9.96445 16.4203 8.27145 17.9858 7.87195L18.1883 8.32095C14.9538 10.5194 13.1548 13.6514 12.0823 15.8159C11.9338 16.1139 11.6418 16.2994 11.3193 16.2994Z" fill="white"/>
<path d="M5.9541 10.8545C5.9541 10.8545 8.9241 12.369 10.8086 15.7425C11.0476 16.17 11.6401 16.145 11.8576 15.705C12.8836 13.6335 14.6876 10.398 18.0471 8.1145C16.2556 8.5715 12.6726 10.3985 11.3286 13.1385C10.4326 12.2245 9.0891 10.8545 5.9541 10.8545Z" fill="white"/>
</svg>
